<svg version="1.1" id="Layer_1" xmlns="http://www.w3.org/2000/svg" xmlns:xlink="http://www.w3.org/1999/xlink" x="0px" y="0px"
	 width="100%" viewBox="0 0 245 167" enable-background="new 0 0 245 167" xml:space="preserve">
<path fill="#010101" opacity="1.000000" stroke="none" 
	d="
M162.000000,168.000000 
	C108.000000,168.000000 54.500008,168.000000 1.000007,168.000000 
	C1.000005,112.333344 1.000005,56.666679 1.000002,1.000015 
	C82.666656,1.000010 164.333313,1.000010 245.999969,1.000005 
	C245.999985,56.666653 245.999985,112.333305 246.000000,167.999969 
	C218.166672,168.000000 190.333328,168.000000 162.000000,168.000000 
M227.997070,87.193604 
	C227.996567,86.132187 227.996063,85.070770 227.995773,83.199867 
	C227.215561,80.577675 228.535828,76.896866 224.142456,75.178360 
	C224.109467,70.400246 224.076492,65.622131 224.876358,61.209736 
	C225.460388,63.417591 226.044434,65.625450 226.512161,67.393608 
	C226.512161,63.387474 226.512161,58.955124 226.512161,54.018230 
	C225.187546,55.029469 224.426010,55.610832 223.413040,55.687099 
	C223.305695,55.133179 223.198349,54.579262 223.418182,53.411469 
	C223.268845,51.609928 223.119492,49.808392 223.039963,47.121414 
	C222.889175,44.771049 222.738388,42.420681 222.790146,39.247776 
	C222.226273,37.106621 221.662399,34.965466 221.129257,32.001369 
	C220.712723,29.303757 220.788727,26.399618 219.764465,23.956818 
	C218.219131,20.271242 217.784607,15.279646 211.883453,14.692612 
	C211.666031,14.511852 211.444839,14.506882 210.508224,14.321520 
	C209.982559,14.300371 209.456894,14.279222 208.229141,14.077719 
	C207.512909,14.142379 206.796692,14.207039 205.284332,14.143514 
	C204.487930,14.236616 203.691544,14.329720 202.359787,14.321632 
	C202.058197,14.507982 201.756622,14.694332 200.611526,14.643990 
	C192.228241,14.722195 183.844971,14.800401 175.093628,14.541825 
	C174.784134,14.357783 174.466446,14.341973 173.436050,14.252357 
	C172.941605,14.258238 172.447144,14.264118 171.503754,14.101456 
	C171.503754,14.101456 171.034103,14.198372 170.193024,14.034616 
	C168.482208,14.014726 166.771408,13.994837 164.801437,13.732956 
	C164.478806,13.800836 164.156158,13.868715 163.095535,13.767967 
	C161.841431,13.811825 160.587311,13.855681 158.571136,13.524665 
	C155.456955,13.526529 152.342773,13.528394 148.282150,13.370929 
	C143.811813,13.378032 139.341461,13.385135 134.098373,13.169392 
	C132.764145,13.207932 131.429916,13.246470 129.161392,13.163893 
	C124.765182,13.166212 120.368973,13.168530 115.500717,13.078838 
	C115.500717,13.078838 115.036339,13.203910 114.102776,13.074802 
	C103.039421,13.156226 91.976067,13.237649 80.225342,13.128550 
	C79.526848,13.219648 78.828354,13.310746 77.257805,13.263249 
	C76.094604,13.382231 74.931396,13.501212 73.247818,13.372870 
	C72.706528,13.540686 72.165245,13.708501 70.751869,13.687370 
	C65.822624,13.865211 60.893375,14.043052 55.500069,14.140244 
	C55.500069,14.140244 55.062908,14.315604 54.158699,14.197188 
	C52.349792,14.360434 50.540890,14.523678 48.264404,14.427122 
	C47.764908,14.589453 47.265411,14.751783 45.901398,14.779073 
	C40.590523,14.910539 35.279652,15.042005 29.499231,15.063674 
	C29.499231,15.063674 29.048271,15.234457 28.251556,15.107665 
	C26.480858,15.688073 24.710157,16.268482 22.417072,17.151215 
	C22.310896,17.719641 22.204720,18.288069 22.051338,19.429731 
	C22.033669,19.620642 22.015999,19.811552 21.234386,19.994925 
	C15.492389,20.829973 12.943456,24.992588 12.093237,29.945137 
	C10.156140,41.228794 9.508713,52.508785 10.800935,64.072174 
	C12.584388,80.031303 12.875518,96.152420 14.042183,112.186951 
	C14.823359,122.923355 15.791495,133.658615 17.162807,144.331833 
	C17.559437,147.418884 19.640753,150.289505 20.920422,153.985550 
	C21.332111,155.856949 20.406651,158.732971 24.902800,158.039276 
	C26.597721,158.007156 28.292641,157.975021 30.017586,158.712204 
	C31.261040,163.450699 34.456173,159.748718 36.481689,159.886292 
	C47.010323,160.601425 57.581207,160.786209 68.139366,160.856293 
	C69.427444,160.864853 70.727448,159.075455 72.868568,158.017395 
	C74.572983,158.050140 76.277405,158.082870 78.082993,158.671417 
	C78.395630,158.970245 78.708267,159.269058 79.020905,159.567886 
	C79.355560,159.101654 79.690216,158.635437 80.846283,158.079239 
	C82.220863,158.114853 83.595436,158.150482 85.033424,158.990662 
	C86.146530,159.660858 87.237747,160.871658 88.376129,160.917725 
	C99.950691,161.386368 111.539551,161.519104 123.110931,162.043411 
	C132.335693,162.461380 141.534302,163.450317 150.758713,163.884048 
	C156.951492,164.175247 163.169052,163.939484 170.554321,163.939484 
	C168.587616,162.227951 167.663284,161.423553 167.597733,160.452240 
	C171.054062,160.381714 174.510376,160.311188 178.028580,161.029633 
	C179.318771,161.683945 180.692719,163.030457 181.886307,162.886078 
	C194.602310,161.347839 207.318695,159.757080 219.969131,157.763000 
	C224.347870,157.072800 228.406525,150.309555 227.692429,145.787659 
	C227.575943,145.050003 225.855545,144.565613 224.783020,143.139420 
	C224.857315,141.760895 224.931595,140.382355 225.827423,138.964523 
	C226.548279,138.072571 227.772675,137.247864 227.902298,136.276978 
	C228.445084,132.211487 228.659683,128.102158 228.998062,123.070465 
	C228.996887,113.710487 228.995697,104.350517 228.994370,94.261307 
	C228.664093,93.168716 228.333817,92.076134 228.001434,90.235046 
	C227.999268,89.486542 227.997101,88.738029 227.997070,87.193604 
M225.424667,46.485958 
	C225.424667,46.485958 225.521652,46.430553 225.424667,46.485958 
z"/>
<path fill="#EAFDFB" opacity="1.000000" stroke="none" 
	d="
M20.949738,153.259338 
	C19.640753,150.289505 17.559437,147.418884 17.162807,144.331833 
	C15.791495,133.658615 14.823359,122.923355 14.042183,112.186951 
	C12.875518,96.152420 12.584388,80.031303 10.800935,64.072174 
	C9.508713,52.508785 10.156140,41.228794 12.093237,29.945137 
	C12.943456,24.992588 15.492389,20.829973 21.835434,20.321159 
	C23.332142,20.990093 24.219995,21.606876 25.124685,21.632647 
	C33.226433,21.863432 41.335365,21.878418 49.433613,22.184006 
	C55.553753,22.414953 61.586830,23.178568 65.875595,28.455185 
	C65.797241,28.620632 66.002899,28.923550 65.943802,29.350784 
	C66.214172,33.729225 66.806801,37.679035 66.827805,41.631882 
	C66.921654,59.293140 66.675873,76.957504 66.900299,94.616333 
	C67.067139,107.744324 67.767159,120.865532 68.035156,134.224548 
	C68.215385,135.779129 68.590157,137.098938 68.884033,138.686707 
	C69.116150,139.351379 69.429176,139.748093 69.676147,140.427231 
	C69.349556,141.517532 69.089005,142.325409 68.825516,143.363281 
	C68.822571,143.593262 69.137100,143.931259 69.009155,144.344772 
	C68.443817,146.922974 70.382332,150.535370 66.563118,150.757874 
	C58.583218,151.222824 50.565292,151.056122 42.562714,151.103989 
	C36.296951,151.141479 30.030045,151.072479 23.766310,151.191238 
	C23.305420,151.199982 22.866112,152.347015 22.159285,152.946259 
	C21.584444,153.038223 21.267090,153.148773 20.949738,153.259338 
z"/>
<path fill="#987F53" opacity="1.000000" stroke="none" 
	d="
M68.828461,143.133301 
	C69.089005,142.325409 69.349556,141.517532 70.003822,140.150421 
	C70.763992,135.650528 72.705620,131.549255 69.144562,127.538254 
	C69.162994,121.021683 69.252792,114.968582 69.492188,108.780014 
	C69.617111,108.157867 69.592438,107.671204 69.476242,106.738983 
	C69.369003,104.173706 69.353279,102.053978 69.442627,99.845657 
	C69.689445,99.480629 69.623756,99.250999 69.280060,98.600693 
	C69.198074,86.407738 69.186668,74.682274 69.362228,62.806824 
	C69.429443,62.120033 69.309685,61.583233 69.130005,60.582279 
	C69.156548,56.040794 69.243019,51.963463 69.542419,47.559376 
	C69.617126,43.528778 69.478905,39.824940 69.258797,35.772842 
	C69.113258,34.951836 69.049606,34.479088 69.241425,33.793678 
	C69.095108,32.387852 68.693314,31.194685 68.227951,29.699965 
	C68.130081,29.195839 68.095795,28.993267 68.037888,28.476086 
	C67.436256,27.441128 66.858253,26.720776 66.104782,25.682287 
	C64.066521,24.200268 62.333450,22.412485 60.315868,21.992952 
	C54.904667,20.867756 49.371674,20.328257 43.687798,19.412832 
	C43.175613,19.139019 42.850529,19.091639 42.079384,19.199400 
	C35.431652,19.109798 29.217831,18.948189 22.999996,18.463913 
	C22.977142,17.710463 22.958300,17.279676 22.939459,16.848890 
	C24.710157,16.268482 26.480858,15.688073 28.745918,15.294004 
	C29.240282,15.480344 29.666601,15.513652 29.666601,15.513652 
	C29.666601,15.513652 29.968779,15.173470 29.968779,15.173470 
	C35.279652,15.042005 40.590523,14.910539 46.588531,14.870914 
	C47.761101,14.870811 48.246544,14.778867 48.731983,14.686922 
	C50.540890,14.523678 52.349792,14.360434 54.710754,14.366316 
	C55.262814,14.535442 55.674477,14.545538 55.674477,14.545538 
	C55.674477,14.545538 55.964130,14.220892 55.964130,14.220892 
	C60.893375,14.043052 65.822624,13.865211 71.468796,13.813501 
	C72.713211,13.833154 73.240700,13.726673 73.768196,13.620193 
	C74.931396,13.501212 76.094604,13.382231 77.895561,13.496801 
	C79.326447,13.593259 80.119583,13.456165 80.912712,13.319073 
	C91.976067,13.237649 103.039421,13.156226 114.663788,13.268729 
	C115.224808,13.462656 115.658012,13.513226 115.658012,13.513226 
	C115.658012,13.513226 115.972763,13.170850 115.972763,13.170850 
	C120.368973,13.168530 124.765182,13.166212 129.874542,13.427372 
	C132.015488,13.591313 133.443314,13.491776 134.871124,13.392239 
	C139.341461,13.385135 143.811813,13.378032 149.095764,13.613691 
	C153.050659,13.870815 156.191940,13.885177 159.333206,13.899538 
	C160.587311,13.855681 161.841431,13.811825 163.771454,13.870892 
	C164.651779,13.974194 164.856186,13.974571 165.060593,13.974947 
	C166.771408,13.994837 168.482208,14.014726 170.697144,14.246002 
	C171.201263,14.457388 171.611954,14.556757 171.611954,14.556757 
	C171.611954,14.556757 171.952698,14.270000 171.952698,14.270000 
	C172.447144,14.264118 172.941605,14.258238 173.981903,14.504158 
	C174.828644,14.875883 175.139954,14.916766 175.461685,14.878607 
	C183.844971,14.800401 192.228241,14.722195 201.295715,14.753836 
	C202.284988,14.716727 202.590073,14.569773 202.895142,14.422821 
	C203.691544,14.329720 204.487930,14.236616 205.877960,14.398505 
	C207.291473,14.521689 208.111359,14.389882 208.931229,14.258074 
	C209.456894,14.279222 209.982559,14.300371 211.002625,14.575224 
	C211.697708,14.915949 211.907455,14.959785 212.126251,14.960435 
	C217.784607,15.279646 218.219131,20.271242 219.764465,23.956818 
	C220.788727,26.399618 220.712723,29.303757 221.060226,32.839973 
	C221.523331,35.809155 222.055466,37.939735 222.587585,40.070320 
	C222.738388,42.420681 222.889175,44.771049 222.745651,47.823639 
	C222.664551,50.359024 222.877777,52.192181 223.091003,54.025341 
	C223.198349,54.579262 223.305695,55.133179 223.477142,56.283924 
	C223.708664,58.201839 223.876083,59.522926 224.043518,60.844013 
	C224.076492,65.622131 224.109467,70.400246 224.166718,75.989319 
	C224.467789,79.532242 224.744614,82.264214 224.954437,85.332657 
	C224.958206,86.117096 225.028976,86.565071 225.054657,87.387924 
	C225.175491,89.488953 225.341415,91.215096 225.390228,92.991150 
	C225.273117,93.041061 225.120560,93.244888 225.045303,93.535217 
	C225.044891,94.636757 225.119736,95.447968 225.239853,96.632874 
	C225.383911,98.997795 225.482681,100.989029 225.466675,103.087906 
	C225.211044,103.522072 225.283508,103.795601 225.639816,104.426468 
	C225.734085,106.223526 225.757797,107.610268 225.558533,109.326180 
	C225.415375,113.471954 225.495193,117.288567 225.628082,121.460182 
	C225.712982,122.531853 225.744843,123.248505 225.577591,124.317657 
	C225.148087,128.437057 224.917694,132.203949 224.566193,136.083191 
	C224.298676,136.539291 224.386337,136.818771 224.749969,137.364288 
	C224.863174,138.131012 224.934540,138.567429 225.005890,139.003830 
	C224.931595,140.382355 224.857315,141.760895 224.482452,143.694519 
	C223.809418,145.439957 222.999283,146.685898 223.142212,147.810760 
	C223.686386,152.093750 221.228027,153.830307 217.710526,154.789520 
	C215.797958,155.311081 213.866165,155.851303 211.907120,156.098633 
	C200.599594,157.526306 189.281326,158.869110 177.966705,160.240646 
	C174.510376,160.311188 171.054062,160.381714 166.734497,160.471039 
	C160.971390,160.567307 156.071533,160.644775 150.789932,160.622345 
	C149.624161,160.497253 148.840118,160.472061 147.670700,160.313232 
	C129.543472,159.402679 111.801620,158.625748 94.051140,157.609467 
	C94.067276,157.051147 94.077087,156.731705 94.527740,156.359650 
	C103.589783,155.943375 112.193306,155.412689 120.803177,155.273224 
	C126.620453,155.178970 132.456985,155.967590 138.266983,155.786484 
	C158.875595,155.144058 179.476532,154.254822 200.300171,153.516876 
	C200.835526,153.535553 201.107208,153.405014 201.711090,153.199707 
	C204.460632,152.714478 206.834106,152.212601 209.570663,151.692017 
	C210.642212,151.494492 211.350708,151.315659 212.428589,151.102325 
	C213.662903,150.273575 214.527817,149.479340 215.523254,148.467789 
	C216.414856,148.036224 217.175934,147.821960 218.081055,147.237946 
	C220.288422,141.793900 220.288422,141.793900 217.780731,140.349136 
	C217.578873,139.835556 217.673401,139.561295 218.382858,139.464172 
	C219.829102,132.387604 220.822922,125.189949 221.880219,117.556053 
	C221.948364,109.049049 221.953033,100.978287 222.000351,92.595322 
	C221.999374,91.866859 221.955750,91.450607 221.891861,90.609497 
	C221.225235,80.517288 220.467987,70.855713 219.964828,61.180916 
	C219.494797,52.143032 219.485611,43.077873 218.860458,34.053341 
	C218.669662,31.299160 217.111160,28.639723 216.029022,25.651752 
	C215.484512,25.293230 215.090042,25.219851 214.781662,25.125475 
	C214.867767,25.104481 214.866272,25.281725 214.869629,24.896290 
	C211.915375,23.253929 208.957748,21.997004 205.955475,20.475504 
	C205.283920,20.116920 204.657028,20.022911 203.652161,19.885765 
	C202.515930,19.782604 201.757675,19.722580 200.943695,19.395355 
	C200.243973,19.120279 199.599976,19.112398 198.575104,19.049004 
	C197.436737,18.869864 196.679245,18.746239 195.786453,18.473663 
	C195.432220,18.153910 195.184616,18.054396 194.526260,18.052664 
	C193.394150,18.203403 192.644119,18.327648 191.436493,18.399300 
	C184.689392,18.374704 178.399872,18.402702 171.729050,18.308941 
	C170.282593,18.140717 169.217438,18.094252 167.941223,18.088251 
	C167.451614,18.229576 167.230438,18.403372 166.653687,18.737663 
	C164.835953,18.904280 163.431107,18.983334 161.868225,18.835754 
	C161.140045,19.011831 160.569916,19.414539 159.536011,19.888170 
	C150.920731,19.985857 142.768616,19.959806 134.617828,20.050760 
	C119.311890,20.221556 104.006416,20.442583 88.701385,20.683075 
	C85.078888,20.739996 82.281044,22.187563 80.740158,25.949379 
	C78.329041,30.716425 76.168663,35.354580 73.985931,40.459332 
	C73.812241,52.605145 73.660896,64.284363 73.427933,76.184052 
	C73.357658,76.736275 73.482185,77.018044 73.702141,77.675919 
	C73.660637,80.093803 73.636909,82.085594 73.516708,84.164345 
	C73.289162,84.511330 73.346046,84.733223 73.661491,85.385109 
	C73.965645,102.869133 74.199196,119.885017 74.312225,137.313568 
	C74.833977,141.153809 75.476257,144.581360 76.247185,148.369934 
	C79.237122,151.196854 82.098419,153.662766 84.655930,156.408691 
	C82.569801,156.792038 80.788193,156.910614 79.004990,156.995865 
	C73.669914,157.251007 68.334213,157.493088 62.531326,157.764679 
	C55.376884,157.749405 48.689869,157.709717 41.753277,157.482727 
	C40.889668,157.297653 40.275631,157.299896 39.296837,157.323761 
	C37.715458,157.303802 36.498844,157.262238 34.883255,157.175446 
	C34.219414,157.168915 33.954544,157.207642 33.348953,157.270966 
	C32.098434,157.266190 31.188631,157.236832 29.853481,157.121887 
	C27.639481,157.413300 25.850824,157.790268 24.062168,158.167252 
	C20.406651,158.732971 21.332111,155.856949 20.935078,153.622437 
	C21.267090,153.148773 21.584444,153.038223 22.611519,153.106674 
	C23.612310,153.418381 23.903383,153.551086 24.259626,153.717697 
	C24.324797,153.751587 24.755650,153.745071 25.222597,153.614365 
	C31.142550,153.396072 36.595554,153.308487 42.198475,153.399689 
	C42.879601,153.471832 43.410809,153.365204 44.386665,153.205490 
	C46.912716,153.236603 48.994125,153.320816 51.155655,153.499649 
	C51.235783,153.594269 51.577347,153.676331 51.577347,153.676331 
	C51.577347,153.676331 51.889462,153.494217 52.272366,153.445419 
	C53.160667,153.473663 53.666069,153.550690 54.293312,153.714966 
	C54.591461,153.903534 54.779888,153.971069 55.435246,154.007050 
	C58.920582,154.004501 61.951111,153.999695 65.155365,153.945221 
	C65.557083,153.802292 65.747543,153.659103 66.296860,153.347382 
	C71.690285,152.964981 70.866913,148.928696 71.645157,145.562363 
	C72.363892,142.438507 71.421036,141.651749 68.828461,143.133301 
M222.395370,61.481483 
	C222.395370,61.481483 222.579620,61.584614 222.579620,61.584614 
	C222.579620,61.584614 222.552536,61.385715 222.395370,61.481483 
z"/>
<path fill="#0F0E0D" opacity="1.000000" stroke="none" 
	d="
M94.059769,157.848816 
	C111.801620,158.625748 129.543472,159.402679 147.789276,160.652405 
	C149.252701,160.990875 150.212173,160.856567 151.171661,160.722260 
	C156.071533,160.644775 160.971390,160.567307 166.305115,160.554489 
	C167.663284,161.423553 168.587616,162.227951 170.554321,163.939484 
	C163.169052,163.939484 156.951492,164.175247 150.758713,163.884048 
	C141.534302,163.450317 132.335693,162.461380 123.110931,162.043411 
	C111.539551,161.519104 99.950691,161.386368 88.376129,160.917725 
	C87.237747,160.871658 86.146530,159.660858 85.451668,158.518524 
	C88.599861,157.980530 91.329819,157.914673 94.059769,157.848816 
z"/>
<path fill="#0F0E0D" opacity="1.000000" stroke="none" 
	d="
M177.997650,160.635132 
	C189.281326,158.869110 200.599594,157.526306 211.907120,156.098633 
	C213.866165,155.851303 215.797958,155.311081 217.710526,154.789520 
	C221.228027,153.830307 223.686386,152.093750 223.142212,147.810760 
	C222.999283,146.685898 223.809418,145.439957 224.529175,144.106903 
	C225.855545,144.565613 227.575943,145.050003 227.692429,145.787659 
	C228.406525,150.309555 224.347870,157.072800 219.969131,157.763000 
	C207.318695,159.757080 194.602310,161.347839 181.886307,162.886078 
	C180.692719,163.030457 179.318771,161.683945 177.997650,160.635132 
z"/>
<path fill="#0F0E0D" opacity="1.000000" stroke="none" 
	d="
M42.002853,157.670029 
	C48.689869,157.709717 55.376884,157.749405 62.973339,157.856628 
	C66.595825,157.989227 69.308868,158.054260 72.021919,158.119293 
	C70.727448,159.075455 69.427444,160.864853 68.139366,160.856293 
	C57.581207,160.786209 47.010323,160.601425 36.481689,159.886292 
	C34.456173,159.748718 31.261040,163.450699 30.063511,158.139053 
	C30.109434,157.565903 30.278826,157.207458 30.278826,157.207458 
	C31.188631,157.236832 32.098434,157.266190 33.528545,157.414185 
	C34.459976,157.428772 34.871105,157.324722 35.282230,157.220673 
	C36.498844,157.262238 37.715458,157.303802 39.555283,157.503052 
	C40.786610,157.663834 41.394733,157.666931 42.002853,157.670029 
z"/>
<path fill="#1B1A19" opacity="1.000000" stroke="none" 
	d="
M23.004007,18.786579 
	C29.217831,18.948189 35.431652,19.109798 42.269886,19.376980 
	C43.225216,19.507080 43.556133,19.531607 43.887054,19.556133 
	C49.371674,20.328257 54.904667,20.867756 60.315868,21.992952 
	C62.333450,22.412485 64.066521,24.200268 66.051163,26.064240 
	C66.099998,27.272799 66.026978,27.781267 65.953957,28.289736 
	C61.586830,23.178568 55.553753,22.414953 49.433613,22.184006 
	C41.335365,21.878418 33.226433,21.863432 25.124685,21.632647 
	C24.219995,21.606876 23.332142,20.990093 22.217403,20.324928 
	C22.015999,19.811552 22.033669,19.620642 22.304020,19.162548 
	C22.556704,18.895365 23.004007,18.786579 23.004007,18.786579 
z"/>
<path fill="#030305" opacity="1.000000" stroke="none" 
	d="
M225.781509,108.997009 
	C225.757797,107.610268 225.734085,106.223526 225.723663,104.168396 
	C225.685120,103.326759 225.633286,103.153511 225.581467,102.980255 
	C225.482681,100.989029 225.383911,98.997795 225.411530,96.453659 
	C225.691422,95.607117 225.817810,95.302238 226.301849,94.987610 
	C227.455902,94.989594 228.225204,94.990067 228.994507,94.990540 
	C228.995697,104.350517 228.996887,113.710487 228.594727,123.536201 
	C227.386505,123.989677 226.581604,123.977425 225.776703,123.965164 
	C225.744843,123.248505 225.712982,122.531853 225.766113,121.007973 
	C225.827896,116.466171 225.804703,112.731590 225.781509,108.997009 
z"/>
<path fill="#0F0E0D" opacity="1.000000" stroke="none" 
	d="
M225.577606,124.317657 
	C226.581604,123.977425 227.386505,123.989677 228.592957,124.005417 
	C228.659683,128.102158 228.445084,132.211487 227.902298,136.276978 
	C227.772675,137.247864 226.548279,138.072571 225.416656,138.984177 
	C224.934540,138.567429 224.863174,138.131012 224.810547,137.097198 
	C224.781937,136.323471 224.734634,136.147171 224.687317,135.970856 
	C224.917694,132.203949 225.148087,128.437057 225.577606,124.317657 
z"/>
<path fill="#716247" opacity="1.000000" stroke="none" 
	d="
M72.445244,158.068359 
	C69.308868,158.054260 66.595825,157.989227 63.440765,157.832230 
	C68.334213,157.493088 73.669914,157.251007 79.004990,156.995865 
	C80.788193,156.910614 82.569801,156.792038 85.109421,156.355225 
	C88.601776,156.151749 91.336861,156.281769 94.071938,156.411789 
	C94.077087,156.731705 94.067276,157.051147 94.051140,157.609467 
	C91.329819,157.914673 88.599861,157.980530 85.419968,158.116241 
	C83.595436,158.150482 82.220863,158.114853 80.098450,158.052124 
	C78.894348,158.055206 78.438087,158.085419 77.981819,158.115616 
	C76.277405,158.082870 74.572983,158.050140 72.445244,158.068359 
z"/>
<path fill="#0F0E0D" opacity="1.000000" stroke="none" 
	d="
M224.459930,61.026875 
	C223.876083,59.522926 223.708664,58.201839 223.602844,56.536472 
	C224.426010,55.610832 225.187546,55.029469 226.512161,54.018230 
	C226.512161,58.955124 226.512161,63.387474 226.512161,67.393608 
	C226.044434,65.625450 225.460388,63.417591 224.459930,61.026875 
z"/>
<path fill="#030305" opacity="1.000000" stroke="none" 
	d="
M225.021423,84.996185 
	C224.744614,82.264214 224.467789,79.532242 224.275513,76.393127 
	C228.535828,76.896866 227.215561,80.577675 227.703384,83.727676 
	C226.614471,84.502388 225.817947,84.749283 225.021423,84.996185 
z"/>
<path fill="#7B6947" opacity="1.000000" stroke="none" 
	d="
M222.688873,39.659050 
	C222.055466,37.939735 221.523331,35.809155 221.044861,33.251442 
	C221.662399,34.965466 222.226273,37.106621 222.688873,39.659050 
z"/>
<path fill="#030305" opacity="1.000000" stroke="none" 
	d="
M225.507324,92.941238 
	C225.341415,91.215096 225.175491,89.488953 225.362213,87.414673 
	C226.474869,87.374184 227.234909,87.681854 227.994934,87.989525 
	C227.997101,88.738029 227.999268,89.486542 227.739349,90.799667 
	C226.820633,91.889931 226.163986,92.415581 225.507324,92.941238 
z"/>
<path fill="#7B6947" opacity="1.000000" stroke="none" 
	d="
M223.254593,53.718407 
	C222.877777,52.192181 222.664551,50.359024 222.710754,48.266357 
	C223.119492,49.808392 223.268845,51.609928 223.254593,53.718407 
z"/>
<path fill="#0F0E0D" opacity="1.000000" stroke="none" 
	d="
M225.390228,92.991150 
	C226.163986,92.415581 226.820633,91.889931 227.740417,91.173912 
	C228.333817,92.076134 228.664093,93.168716 228.994446,94.625923 
	C228.225204,94.990067 227.455902,94.989594 226.216278,94.674019 
	C225.537506,93.987572 225.329025,93.616234 225.120560,93.244888 
	C225.120560,93.244888 225.273117,93.041061 225.390228,92.991150 
z"/>
<path fill="#977E52" opacity="1.000000" stroke="none" 
	d="
M158.952179,13.712101 
	C156.191940,13.885177 153.050659,13.870815 149.569000,13.693356 
	C152.342773,13.528394 155.456955,13.526529 158.952179,13.712101 
z"/>
<path fill="#0F0E0D" opacity="1.000000" stroke="none" 
	d="
M227.996002,87.591568 
	C227.234909,87.681854 226.474869,87.374184 225.407288,87.039780 
	C225.028976,86.565071 224.958206,86.117096 224.954437,85.332657 
	C225.817947,84.749283 226.614471,84.502388 227.703278,84.132423 
	C227.996063,85.070770 227.996567,86.132187 227.996002,87.591568 
z"/>
<path fill="#716247" opacity="1.000000" stroke="none" 
	d="
M29.853481,157.121887 
	C30.278826,157.207458 30.109434,157.565903 30.048498,157.754395 
	C28.292641,157.975021 26.597721,158.007156 24.482483,158.103271 
	C25.850824,157.790268 27.639481,157.413300 29.853481,157.121887 
z"/>
<path fill="#977E52" opacity="1.000000" stroke="none" 
	d="
M134.484741,13.280815 
	C133.443314,13.491776 132.015488,13.591313 130.341675,13.487930 
	C131.429916,13.246470 132.764145,13.207932 134.484741,13.280815 
z"/>
<path fill="#0F0E0D" opacity="1.000000" stroke="none" 
	d="
M78.032410,158.393524 
	C78.438087,158.085419 78.894348,158.055206 79.687744,158.097107 
	C79.690216,158.635437 79.355560,159.101654 79.020905,159.567886 
	C78.708267,159.269058 78.395630,158.970245 78.032410,158.393524 
z"/>
<path fill="#977E52" opacity="1.000000" stroke="none" 
	d="
M208.580185,14.167896 
	C208.111359,14.389882 207.291473,14.521689 206.276031,14.462598 
	C206.796692,14.207039 207.512909,14.142379 208.580185,14.167896 
z"/>
<path fill="#977E52" opacity="1.000000" stroke="none" 
	d="
M80.569031,13.223810 
	C80.119583,13.456165 79.326447,13.593259 78.331589,13.566099 
	C78.828354,13.310746 79.526848,13.219648 80.569031,13.223810 
z"/>
<path fill="#977E52" opacity="1.000000" stroke="none" 
	d="
M48.498192,14.557022 
	C48.246544,14.778867 47.761101,14.870811 47.020790,14.938435 
	C47.265411,14.751783 47.764908,14.589453 48.498192,14.557022 
z"/>
<path fill="#977E52" opacity="1.000000" stroke="none" 
	d="
M73.508011,13.496531 
	C73.240700,13.726673 72.713211,13.833154 71.904831,13.907975 
	C72.165245,13.708501 72.706528,13.540686 73.508011,13.496531 
z"/>
<path fill="#977E52" opacity="1.000000" stroke="none" 
	d="
M22.999996,18.463913 
	C23.004007,18.786579 22.556704,18.895365 22.327623,18.875931 
	C22.204720,18.288069 22.310896,17.719641 22.678265,17.000053 
	C22.958300,17.279676 22.977142,17.710463 22.999996,18.463913 
z"/>
<path fill="#977E52" opacity="1.000000" stroke="none" 
	d="
M55.732101,14.180568 
	C55.964130,14.220892 55.674477,14.545538 55.674477,14.545538 
	C55.674477,14.545538 55.262814,14.535442 55.162861,14.425524 
	C55.062908,14.315604 55.500069,14.140244 55.732101,14.180568 
z"/>
<path fill="#977E52" opacity="1.000000" stroke="none" 
	d="
M175.277649,14.710216 
	C175.139954,14.916766 174.828644,14.875883 174.334167,14.625177 
	C174.466446,14.341973 174.784134,14.357783 175.277649,14.710216 
z"/>
<path fill="#977E52" opacity="1.000000" stroke="none" 
	d="
M164.931015,13.853952 
	C164.856186,13.974571 164.651779,13.974194 164.140457,13.955206 
	C164.156158,13.868715 164.478806,13.800836 164.931015,13.853952 
z"/>
<path fill="#977E52" opacity="1.000000" stroke="none" 
	d="
M115.736740,13.124844 
	C115.972763,13.170850 115.658012,13.513226 115.658012,13.513226 
	C115.658012,13.513226 115.224808,13.462656 115.130569,13.333282 
	C115.036339,13.203910 115.500717,13.078838 115.736740,13.124844 
z"/>
<path fill="#0F0E0D" opacity="1.000000" stroke="none" 
	d="
M225.473160,46.458256 
	C225.521652,46.430553 225.424667,46.485958 225.473160,46.458256 
z"/>
<path fill="#977E52" opacity="1.000000" stroke="none" 
	d="
M171.728226,14.185728 
	C171.952698,14.270000 171.611954,14.556757 171.611954,14.556757 
	C171.611954,14.556757 171.201263,14.457388 171.117676,14.327880 
	C171.034103,14.198372 171.503754,14.101456 171.728226,14.185728 
z"/>
<path fill="#977E52" opacity="1.000000" stroke="none" 
	d="
M29.734005,15.118572 
	C29.968779,15.173470 29.666601,15.513652 29.666601,15.513652 
	C29.666601,15.513652 29.240282,15.480344 29.144276,15.357401 
	C29.048271,15.234457 29.499231,15.063674 29.734005,15.118572 
z"/>
<path fill="#977E52" opacity="1.000000" stroke="none" 
	d="
M212.004852,14.826523 
	C211.907455,14.959785 211.697708,14.915949 211.358429,14.753314 
	C211.444839,14.506882 211.666031,14.511852 212.004852,14.826523 
z"/>
<path fill="#977E52" opacity="1.000000" stroke="none" 
	d="
M202.627472,14.372226 
	C202.590073,14.569773 202.284988,14.716727 201.717468,14.872182 
	C201.756622,14.694332 202.058197,14.507982 202.627472,14.372226 
z"/>
<path fill="#12110F" opacity="1.000000" stroke="none" 
	d="
M69.342590,108.915489 
	C69.252792,114.968582 69.162994,121.021683 69.089645,127.948730 
	C69.027832,130.473679 68.949562,132.124680 68.698257,133.791367 
	C68.525238,133.807053 68.229706,133.989761 68.229706,133.989761 
	C67.767159,120.865532 67.067139,107.744324 66.900299,94.616333 
	C66.675873,76.957504 66.921654,59.293140 66.827805,41.631882 
	C66.806801,37.679035 66.214172,33.729225 66.285812,29.318733 
	C67.145119,28.836529 67.603310,28.813612 68.061508,28.790695 
	C68.095795,28.993267 68.130081,29.195839 68.144943,30.057720 
	C68.412323,31.813465 68.699135,32.909901 68.985947,34.006340 
	C69.049606,34.479088 69.113258,34.951836 69.166611,36.214012 
	C69.214043,40.631004 69.271767,44.258568 69.329483,47.886131 
	C69.243019,51.963463 69.156548,56.040794 69.051773,60.896965 
	C69.080727,62.102806 69.127998,62.529808 69.175262,62.956814 
	C69.186668,74.682274 69.198074,86.407738 69.213974,98.816208 
	C69.218452,99.499222 69.337555,99.934242 69.337555,99.934242 
	C69.353279,102.053978 69.369003,104.173706 69.362198,107.012245 
	C69.340637,108.125862 69.341614,108.520676 69.342590,108.915489 
z"/>
<path fill="#080808" opacity="1.000000" stroke="none" 
	d="
M42.048561,153.220901 
	C36.595554,153.308487 31.142550,153.396072 25.092064,153.510757 
	C24.494583,153.537857 24.194456,153.683807 24.194456,153.683807 
	C23.903383,153.551086 23.612310,153.418381 22.869003,153.125275 
	C22.866112,152.347015 23.305420,151.199982 23.766310,151.191238 
	C30.030045,151.072479 36.296951,151.141479 42.562714,151.103989 
	C50.565292,151.056122 58.583218,151.222824 66.563118,150.757874 
	C70.382332,150.535370 68.443817,146.922974 69.334076,144.417603 
	C70.354332,144.661072 70.921738,145.245224 71.489136,145.829376 
	C70.866913,148.928696 71.690285,152.964981 66.098022,153.307602 
	C65.255898,153.526535 65.082176,153.729370 64.981636,153.994904 
	C61.951111,153.999695 58.920582,154.004501 55.340443,153.852112 
	C54.790829,153.694916 54.500484,153.481674 54.500484,153.481674 
	C54.500484,153.481674 54.171467,153.627716 54.171467,153.627716 
	C53.666069,153.550690 53.160667,153.473663 52.076431,153.354919 
	C51.497589,153.313232 51.075531,153.405029 51.075531,153.405029 
	C48.994125,153.320816 46.912716,153.236603 44.075874,153.121765 
	C42.896481,153.134384 42.472519,153.177643 42.048561,153.220901 
z"/>
<path fill="#977E52" opacity="1.000000" stroke="none" 
	d="
M68.871284,133.775681 
	C68.949562,132.124680 69.027832,130.473679 69.161018,128.412201 
	C72.705620,131.549255 70.763992,135.650528 70.069870,139.868011 
	C69.429176,139.748093 69.116150,139.351379 68.839996,138.213867 
	C68.875008,136.240601 68.873146,135.008148 68.871284,133.775681 
z"/>
<path fill="#595F5E" opacity="1.000000" stroke="none" 
	d="
M68.698257,133.791367 
	C68.873146,135.008148 68.875008,136.240601 68.920898,137.945908 
	C68.590157,137.098938 68.215385,135.779129 68.035156,134.224548 
	C68.229706,133.989761 68.525238,133.807053 68.698257,133.791367 
z"/>
<path fill="#977E52" opacity="1.000000" stroke="none" 
	d="
M71.645157,145.562363 
	C70.921738,145.245224 70.354332,144.661072 69.462021,144.004089 
	C69.137100,143.931259 68.822571,143.593262 68.825516,143.363281 
	C71.421036,141.651749 72.363892,142.438507 71.645157,145.562363 
z"/>
<path fill="#977E52" opacity="1.000000" stroke="none" 
	d="
M68.037888,28.476086 
	C67.603310,28.813612 67.145119,28.836529 66.344910,28.891499 
	C66.002899,28.923550 65.797241,28.620632 65.875595,28.455185 
	C66.026978,27.781267 66.099998,27.272799 66.226631,26.382378 
	C66.858253,26.720776 67.436256,27.441128 68.037888,28.476086 
z"/>
<path fill="#E9FBF9" opacity="1.000000" stroke="none" 
	d="
M217.930450,139.343079 
	C217.673401,139.561295 217.578873,139.835556 217.690308,140.758667 
	C217.091705,142.987900 216.351379,144.598938 215.915161,146.288483 
	C215.850845,146.537628 217.227203,147.158707 217.936996,147.607712 
	C217.175934,147.821960 216.414856,148.036224 215.201782,148.047424 
	C213.828690,148.261017 212.907623,148.677628 211.669037,149.104507 
	C210.568832,149.427521 209.786133,149.740280 208.657104,150.000977 
	C206.885605,148.285599 205.460449,146.622299 204.024811,144.982056 
	C204.014313,145.005127 204.062317,144.973572 203.819778,144.654449 
	C203.062424,141.556107 202.547607,138.776917 202.062088,135.621033 
	C201.429810,134.477722 200.768234,133.711060 200.074493,132.962677 
	C200.042328,132.980957 200.077225,132.915710 200.238037,132.546387 
	C199.961212,132.090790 199.523575,132.004532 199.060791,131.965469 
	C199.035660,132.012650 199.111221,131.936752 199.505447,131.704636 
	C199.004730,130.215546 197.865387,129.059509 197.291473,127.669945 
	C196.824921,126.540375 196.454407,124.690140 197.040527,123.916222 
	C201.144043,118.497780 201.639542,112.403915 201.026733,105.621384 
	C199.758224,102.440804 198.927505,99.230186 197.008224,96.926460 
	C192.612839,91.650688 189.862427,85.904549 189.131332,79.047165 
	C188.770340,75.661064 187.697678,72.350830 186.938171,68.665550 
	C180.332474,57.787212 168.737961,58.777550 158.731079,56.109432 
	C158.584290,56.070293 158.405151,56.152420 157.833969,56.075569 
	C153.576431,55.780605 149.589722,55.141960 146.623596,59.152443 
	C145.960419,59.195698 145.697708,59.239197 145.306915,59.198608 
	C144.842316,59.078915 144.598206,59.197899 144.061218,59.612099 
	C143.175934,58.796001 142.904114,57.514679 142.119354,56.963009 
	C141.089325,56.238914 139.655045,56.089878 138.394608,55.693531 
	C137.906494,59.050518 137.418381,62.407501 136.509033,65.789391 
	C134.179855,67.433800 132.332626,68.249687 129.479126,68.109001 
	C126.676048,67.970802 123.774353,69.832619 120.584976,70.940170 
	C114.967712,76.307869 115.145996,82.525497 117.079239,88.753227 
	C115.211578,90.928528 113.505997,92.915054 111.458336,95.116074 
	C110.655090,95.874405 110.248322,96.826378 109.723991,96.896263 
	C106.162857,97.370926 102.576927,97.659576 98.673485,98.002670 
	C96.566940,98.838882 94.785919,99.680740 92.649818,100.671371 
	C87.629120,104.666527 86.236221,112.709549 88.891655,120.419922 
	C89.240791,128.281891 89.791443,129.439545 97.095566,130.579666 
	C100.448555,131.103073 102.317101,132.524963 104.011032,135.356781 
	C107.426300,139.780853 111.387634,142.776886 117.337471,142.961304 
	C118.780624,142.997513 119.830383,143.017365 120.936859,143.404373 
	C121.225143,145.352875 121.118759,147.097733 121.782684,148.469894 
	C122.455643,149.860748 123.889832,150.883286 124.994873,152.282913 
	C124.999146,152.498688 125.000648,152.930328 124.537888,153.008972 
	C112.692352,153.375732 101.304527,153.540680 89.929047,154.006912 
	C84.693871,154.221481 80.779640,152.448853 78.100433,147.563049 
	C77.574928,143.737671 77.021408,140.336975 76.552673,136.526123 
	C76.446503,123.414169 76.255547,110.712395 76.196686,97.833603 
	C76.217377,97.104744 76.105965,96.552910 76.041435,95.534340 
	C76.207169,76.743179 76.326019,58.418751 76.625900,39.797676 
	C78.849159,34.995392 80.891388,30.489759 83.122086,25.649353 
	C86.107582,21.663931 90.229996,22.822475 93.806679,22.731367 
	C110.200340,22.313753 126.601135,22.176584 143.251556,22.024704 
	C143.669266,22.046253 143.834793,21.981819 144.463821,21.964764 
	C148.750183,22.007359 152.577866,22.125048 156.394943,21.974360 
	C166.991867,21.556021 177.622147,20.257462 188.167068,20.775532 
	C197.118988,21.215336 205.970398,23.701195 214.866272,25.281723 
	C214.866272,25.281725 214.867767,25.104481 214.602997,25.280674 
	C214.338242,25.456865 214.354889,25.929760 214.544739,26.307297 
	C215.130127,28.265043 215.792084,29.830692 215.879395,31.427753 
	C216.627640,45.116047 217.174728,58.815815 217.990952,72.499687 
	C218.361862,78.718140 219.204178,84.908478 219.705109,91.417076 
	C219.698196,92.136520 219.818817,92.550453 219.926620,93.397888 
	C220.028976,101.885590 220.144150,109.939781 220.124969,118.407433 
	C219.303879,125.661613 218.617172,132.502350 217.930450,139.343079 
M88.910934,69.698647 
	C88.076042,69.927383 86.517708,70.144394 86.513779,70.386597 
	C86.444603,74.654778 86.537766,78.938599 91.200989,81.157890 
	C92.647881,78.725578 94.015991,76.425697 95.518784,73.899422 
	C93.525742,72.700523 91.459106,71.457352 88.910934,69.698647 
M202.926300,79.919312 
	C202.110229,83.380035 201.782944,86.692688 205.420273,88.824890 
	C207.251465,86.796051 208.962296,84.900581 211.504562,82.083916 
	C208.268555,80.964066 205.699890,80.075150 202.926300,79.919312 
z"/>
<path fill="#151411" opacity="1.000000" stroke="none" 
	d="
M204.035294,144.959000 
	C205.460449,146.622299 206.885605,148.285599 208.696350,150.416840 
	C209.123810,151.160080 209.165710,151.435410 209.207596,151.710724 
	C206.834106,152.212601 204.460632,152.714478 201.487030,153.172089 
	C200.578781,153.142792 200.309937,153.253220 200.080368,153.459091 
	C179.476532,154.254822 158.875595,155.144058 138.266983,155.786484 
	C132.456985,155.967590 126.620453,155.178970 120.803177,155.273224 
	C112.193306,155.412689 103.589783,155.943375 94.527740,156.359650 
	C91.336861,156.281769 88.601776,156.151749 85.413208,156.075195 
	C82.098419,153.662766 79.237122,151.196854 76.737267,148.365051 
	C77.423279,147.995361 77.747849,147.991547 78.072418,147.987747 
	C80.779640,152.448853 84.693871,154.221481 89.929047,154.006912 
	C101.304527,153.540680 112.692352,153.375732 124.968857,153.108307 
	C142.575745,153.127808 159.288895,153.126633 176.319138,153.123383 
	C176.684464,152.752975 176.732697,152.384628 176.796631,151.616577 
	C176.510818,149.140991 176.209320,147.065109 176.272034,144.945465 
	C177.485626,147.078110 178.335022,149.254532 179.141785,151.723175 
	C179.262756,152.357635 179.426392,152.699829 180.051300,153.074829 
	C188.332275,152.337265 196.151993,151.566910 203.065109,150.885864 
	C203.506119,148.191727 203.770706,146.575363 204.035294,144.959000 
z"/>
<path fill="#030303" opacity="1.000000" stroke="none" 
	d="
M142.999374,21.938725 
	C126.601135,22.176584 110.200340,22.313753 93.806679,22.731367 
	C90.229996,22.822475 86.107582,21.663931 82.635773,25.615906 
	C81.637627,25.884985 81.314262,25.852736 80.990891,25.820488 
	C82.281044,22.187563 85.078888,20.739996 88.701385,20.683075 
	C104.006416,20.442583 119.311890,20.221556 134.617828,20.050760 
	C142.768616,19.959806 150.920731,19.985857 159.836838,19.942921 
	C161.076385,19.638628 161.551331,19.350510 162.026276,19.062387 
	C163.431107,18.983334 164.835953,18.904280 166.844864,18.818298 
	C167.448944,18.811371 167.863266,18.837090 168.225220,18.910233 
	C169.761566,18.799149 170.935974,18.614923 172.110367,18.430700 
	C178.399872,18.402702 184.689392,18.374704 191.723541,18.579304 
	C193.366592,18.806404 194.264984,18.800911 195.360535,18.785366 
	C195.557678,18.775316 195.921753,18.622612 195.921753,18.622612 
	C196.679245,18.746239 197.436737,18.869864 198.724503,19.317345 
	C199.836319,19.648319 200.417877,19.655437 200.999420,19.662554 
	C201.757675,19.722580 202.515930,19.782604 203.757904,20.179806 
	C204.827774,20.591345 205.413956,20.665709 206.000122,20.740076 
	C208.957748,21.997004 211.915375,23.253929 214.869629,24.896290 
	C205.970398,23.701195 197.118988,21.215336 188.167068,20.775532 
	C177.622147,20.257462 166.991867,21.556021 156.394943,21.974360 
	C152.577866,22.125048 148.750183,22.007359 144.369110,21.821873 
	C143.540390,21.733976 143.269882,21.836349 142.999374,21.938725 
z"/>
<path fill="#131312" opacity="1.000000" stroke="none" 
	d="
M76.064590,98.010612 
	C76.255547,110.712395 76.446503,123.414169 76.295639,136.530121 
	C75.446793,136.929825 74.939766,136.915375 74.432747,136.900909 
	C74.199196,119.885017 73.965645,102.869133 73.729912,85.176933 
	C73.727730,84.500626 73.613174,84.077393 73.613174,84.077393 
	C73.636909,82.085594 73.660637,80.093803 73.761597,77.451263 
	C73.840317,76.477707 73.730560,76.198730 73.509544,75.963585 
	C73.660896,64.284363 73.812241,52.605145 74.392799,40.441460 
	C75.362961,40.002773 75.903908,40.048550 76.444862,40.094322 
	C76.326019,58.418751 76.207169,76.743179 75.842163,95.690369 
	C75.752197,96.878952 75.908394,97.444786 76.064590,98.010612 
z"/>
<path fill="#080706" opacity="1.000000" stroke="none" 
	d="
M219.832657,91.111565 
	C219.204178,84.908478 218.361862,78.718140 217.990952,72.499687 
	C217.174728,58.815815 216.627640,45.116047 215.879395,31.427753 
	C215.792084,29.830692 215.130127,28.265043 215.001495,26.320341 
	C215.571960,25.949532 215.875488,25.943214 216.179031,25.936895 
	C217.111160,28.639723 218.669662,31.299160 218.860458,34.053341 
	C219.485611,43.077873 219.494797,52.143032 219.964828,61.180916 
	C220.467987,70.855713 221.225235,80.517288 221.552185,90.716324 
	C220.766068,91.202530 220.299362,91.157051 219.832657,91.111565 
z"/>
<path fill="#080706" opacity="1.000000" stroke="none" 
	d="
M220.259338,117.993980 
	C220.144150,109.939781 220.028976,101.885590 220.257416,93.296967 
	C221.053253,92.810860 221.505478,92.859192 221.957703,92.907524 
	C221.953033,100.978287 221.948364,109.049049 221.620667,117.555618 
	C220.951553,117.992279 220.605438,117.993134 220.259338,117.993980 
z"/>
<path fill="#2A2A28" opacity="1.000000" stroke="none" 
	d="
M76.625900,39.797676 
	C75.903908,40.048550 75.362961,40.002773 74.415146,39.974869 
	C76.168663,35.354580 78.329041,30.716425 80.740158,25.949379 
	C81.314262,25.852736 81.637627,25.884985 82.447311,25.950680 
	C80.891388,30.489759 78.849159,34.995392 76.625900,39.797676 
z"/>
<path fill="#0C0B0A" opacity="1.000000" stroke="none" 
	d="
M220.124969,118.407433 
	C220.605438,117.993134 220.951553,117.992279 221.557205,117.991859 
	C220.822922,125.189949 219.829102,132.387604 218.382874,139.464172 
	C218.617172,132.502350 219.303879,125.661613 220.124969,118.407433 
z"/>
<path fill="#292B2B" opacity="1.000000" stroke="none" 
	d="
M74.312225,137.313568 
	C74.939766,136.915375 75.446793,136.929825 76.210846,136.940277 
	C77.021408,140.336975 77.574928,143.737671 78.100433,147.563049 
	C77.747849,147.991547 77.423279,147.995361 76.608627,148.004059 
	C75.476257,144.581360 74.833977,141.153809 74.312225,137.313568 
z"/>
<path fill="#0C0B0A" opacity="1.000000" stroke="none" 
	d="
M218.081055,147.237946 
	C217.227203,147.158707 215.850845,146.537628 215.915161,146.288483 
	C216.351379,144.598938 217.091705,142.987900 217.824158,140.941956 
	C220.288422,141.793900 220.288422,141.793900 218.081055,147.237946 
z"/>
<path fill="#716247" opacity="1.000000" stroke="none" 
	d="
M225.558533,109.326180 
	C225.804703,112.731590 225.827896,116.466171 225.713058,120.652962 
	C225.495193,117.288567 225.415375,113.471954 225.558533,109.326180 
z"/>
<path fill="#977E52" opacity="1.000000" stroke="none" 
	d="
M69.542419,47.559376 
	C69.271767,44.258568 69.214043,40.631004 69.248505,36.562271 
	C69.478905,39.824940 69.617126,43.528778 69.542419,47.559376 
z"/>
<path fill="#977E52" opacity="1.000000" stroke="none" 
	d="
M69.241425,33.793678 
	C68.699135,32.909901 68.412323,31.813465 68.208519,30.359272 
	C68.693314,31.194685 69.095108,32.387852 69.241425,33.793678 
z"/>
<path fill="#282721" opacity="1.000000" stroke="none" 
	d="
M211.986557,149.094254 
	C212.907623,148.677628 213.828690,148.261017 215.071228,148.264740 
	C214.527817,149.479340 213.662903,150.273575 212.426834,150.761139 
	C212.032623,150.001053 212.009598,149.547653 211.986557,149.094254 
z"/>
<path fill="#0C0B0A" opacity="1.000000" stroke="none" 
	d="
M211.669037,149.104507 
	C212.009598,149.547653 212.032623,150.001053 212.057434,150.795654 
	C211.350708,151.315659 210.642212,151.494492 209.570663,151.692017 
	C209.165710,151.435410 209.123810,151.160080 209.042679,150.468903 
	C209.786133,149.740280 210.568832,149.427521 211.669037,149.104507 
z"/>
<path fill="#565C5C" opacity="1.000000" stroke="none" 
	d="
M222.000351,92.595322 
	C221.505478,92.859192 221.053253,92.810860 220.270233,92.863464 
	C219.818817,92.550453 219.698196,92.136520 219.705109,91.417076 
	C220.299362,91.157051 220.766068,91.202530 221.572449,91.141182 
	C221.955750,91.450607 221.999374,91.866859 222.000351,92.595322 
z"/>
<path fill="#977E52" opacity="1.000000" stroke="none" 
	d="
M205.955475,20.475502 
	C205.413956,20.665709 204.827774,20.591345 204.135864,20.222942 
	C204.657028,20.022911 205.283920,20.116920 205.955475,20.475502 
z"/>
<path fill="#977E52" opacity="1.000000" stroke="none" 
	d="
M200.943695,19.395355 
	C200.417877,19.655437 199.836319,19.648319 199.105377,19.372860 
	C199.599976,19.112398 200.243973,19.120279 200.943695,19.395355 
z"/>
<path fill="#423B2E" opacity="1.000000" stroke="none" 
	d="
M171.729050,18.308941 
	C170.935974,18.614923 169.761566,18.799149 168.294495,18.711884 
	C168.001816,18.440395 168.152298,18.047787 168.152298,18.047787 
	C169.217438,18.094252 170.282593,18.140717 171.729050,18.308941 
z"/>
<path fill="#977E52" opacity="1.000000" stroke="none" 
	d="
M161.868225,18.835758 
	C161.551331,19.350510 161.076385,19.638628 160.300598,19.871998 
	C160.569916,19.414539 161.140045,19.011831 161.868225,18.835758 
z"/>
<path fill="#716247" opacity="1.000000" stroke="none" 
	d="
M225.045303,93.535217 
	C225.329025,93.616234 225.537506,93.987572 225.831528,94.672516 
	C225.817810,95.302238 225.691422,95.607117 225.366241,96.079964 
	C225.119736,95.447968 225.044891,94.636757 225.045303,93.535217 
z"/>
<path fill="#423B2E" opacity="1.000000" stroke="none" 
	d="
M195.163376,18.795416 
	C194.264984,18.800911 193.366592,18.806404 192.181152,18.631897 
	C192.644119,18.327648 193.394150,18.203403 194.595383,18.243256 
	C195.046600,18.407352 195.163376,18.795416 195.163376,18.795416 
z"/>
<path fill="#010101" opacity="1.000000" stroke="none" 
	d="
M150.789932,160.622345 
	C150.212173,160.856567 149.252701,160.990875 148.174652,160.786041 
	C148.840118,160.472061 149.624161,160.497253 150.789932,160.622345 
z"/>
<path fill="#716247" opacity="1.000000" stroke="none" 
	d="
M41.753277,157.482727 
	C41.394733,157.666931 40.786610,157.663834 39.920044,157.481445 
	C40.275631,157.299896 40.889668,157.297653 41.753277,157.482727 
z"/>
<path fill="#977E52" opacity="1.000000" stroke="none" 
	d="
M42.198475,153.399689 
	C42.472519,153.177643 42.896481,153.134384 43.631226,153.174866 
	C43.410809,153.365204 42.879601,153.471832 42.198475,153.399689 
z"/>
<path fill="#977E52" opacity="1.000000" stroke="none" 
	d="
M69.492188,108.780014 
	C69.341614,108.520676 69.340637,108.125862 69.453712,107.457794 
	C69.592438,107.671204 69.617111,108.157867 69.492188,108.780014 
z"/>
<path fill="#977E52" opacity="1.000000" stroke="none" 
	d="
M69.362228,62.806824 
	C69.127998,62.529808 69.080727,62.102806 69.111694,61.361115 
	C69.309685,61.583233 69.429443,62.120033 69.362228,62.806824 
z"/>
<path fill="#977E52" opacity="1.000000" stroke="none" 
	d="
M24.259626,153.717697 
	C24.194456,153.683807 24.494583,153.537857 24.625116,153.641464 
	C24.755650,153.745071 24.324797,153.751587 24.259626,153.717697 
z"/>
<path fill="#977E52" opacity="1.000000" stroke="none" 
	d="
M69.442627,99.845657 
	C69.337555,99.934242 69.218452,99.499222 69.284546,99.283707 
	C69.623756,99.250999 69.689445,99.480629 69.442627,99.845657 
z"/>
<path fill="#977E52" opacity="1.000000" stroke="none" 
	d="
M51.155655,153.499649 
	C51.075531,153.405029 51.497589,153.313232 51.693527,153.403717 
	C51.889462,153.494217 51.577347,153.676331 51.577347,153.676331 
	C51.577347,153.676331 51.235783,153.594269 51.155655,153.499649 
z"/>
<path fill="#977E52" opacity="1.000000" stroke="none" 
	d="
M54.293312,153.714966 
	C54.171467,153.627716 54.500484,153.481674 54.500484,153.481674 
	C54.500484,153.481674 54.790829,153.694916 54.885632,153.849854 
	C54.779888,153.971069 54.591461,153.903534 54.293312,153.714966 
z"/>
<path fill="#977E52" opacity="1.000000" stroke="none" 
	d="
M65.155365,153.945236 
	C65.082176,153.729370 65.255898,153.526535 65.701630,153.426193 
	C65.747543,153.659103 65.557083,153.802292 65.155365,153.945236 
z"/>
<path fill="#282721" opacity="1.000000" stroke="none" 
	d="
M200.300171,153.516876 
	C200.309937,153.253220 200.578781,153.142792 201.110977,153.155426 
	C201.107208,153.405014 200.835526,153.535553 200.300171,153.516876 
z"/>
<path fill="#716247" opacity="1.000000" stroke="none" 
	d="
M225.466675,103.087906 
	C225.633286,103.153511 225.685120,103.326759 225.653107,103.758087 
	C225.283508,103.795601 225.211044,103.522072 225.466675,103.087906 
z"/>
<path fill="#716247" opacity="1.000000" stroke="none" 
	d="
M34.883255,157.175446 
	C34.871105,157.324722 34.459976,157.428772 33.869263,157.389587 
	C33.954544,157.207642 34.219414,157.168915 34.883255,157.175446 
z"/>
<path fill="#977E52" opacity="1.000000" stroke="none" 
	d="
M167.941223,18.088251 
	C168.152298,18.047787 168.001816,18.440395 167.932541,18.638742 
	C167.863266,18.837090 167.448944,18.811371 167.257782,18.730736 
	C167.230438,18.403372 167.451614,18.229576 167.941223,18.088251 
z"/>
<path fill="#977E52" opacity="1.000000" stroke="none" 
	d="
M43.687798,19.412834 
	C43.556133,19.531607 43.225216,19.507080 42.703796,19.304974 
	C42.850529,19.091639 43.175613,19.139019 43.687798,19.412834 
z"/>
<path fill="#977E52" opacity="1.000000" stroke="none" 
	d="
M195.360535,18.785366 
	C195.163376,18.795416 195.046600,18.407352 194.977478,18.216763 
	C195.184616,18.054396 195.432220,18.153910 195.786453,18.473663 
	C195.921753,18.622612 195.557678,18.775316 195.360535,18.785366 
z"/>
<path fill="#030303" opacity="1.000000" stroke="none" 
	d="
M216.029022,25.651752 
	C215.875488,25.943214 215.571960,25.949532 214.811646,25.942806 
	C214.354889,25.929760 214.338242,25.456865 214.516907,25.301666 
	C215.090042,25.219851 215.484512,25.293230 216.029022,25.651752 
z"/>
<path fill="#716247" opacity="1.000000" stroke="none" 
	d="
M224.566208,136.083191 
	C224.734634,136.147171 224.781937,136.323471 224.768677,136.766876 
	C224.386337,136.818771 224.298676,136.539291 224.566208,136.083191 
z"/>
<path fill="#7B6947" opacity="1.000000" stroke="none" 
	d="
M222.473953,61.433601 
	C222.552536,61.385715 222.579620,61.584614 222.579620,61.584614 
	C222.579620,61.584614 222.395370,61.481483 222.473953,61.433601 
z"/>
<path fill="#40382A" opacity="1.000000" stroke="none" 
	d="
M73.427933,76.184052 
	C73.730560,76.198730 73.840317,76.477707 73.779358,77.025169 
	C73.482185,77.018044 73.357658,76.736275 73.427933,76.184052 
z"/>
<path fill="#977E52" opacity="1.000000" stroke="none" 
	d="
M73.516708,84.164345 
	C73.613174,84.077393 73.727730,84.500626 73.659309,84.708801 
	C73.346046,84.733223 73.289162,84.511330 73.516708,84.164345 
z"/>
<path fill="#F7E17F" opacity="1.000000" stroke="none" 
	d="
M179.184418,151.430939 
	C178.335022,149.254532 177.485626,147.078110 176.316177,144.950607 
	C175.996124,144.999512 175.992966,145.088745 176.060303,144.689850 
	C176.037247,143.758011 175.946838,143.225052 175.844360,142.458267 
	C175.832291,142.224426 176.093475,141.835739 176.477264,141.865387 
	C178.201340,142.542587 179.484207,143.384186 180.892776,143.800812 
	C184.915466,144.990616 190.255966,142.669693 191.952515,139.041031 
	C193.950958,134.766617 191.387772,131.956940 188.364594,129.771103 
	C186.145676,128.166779 183.388275,127.307205 180.559586,125.927536 
	C179.853027,124.134331 179.457733,122.529312 179.352356,120.790199 
	C179.530823,119.730087 179.695145,118.161125 179.265564,117.976868 
	C174.639557,115.992760 173.341797,112.257034 173.122025,107.650055 
	C173.076508,106.695946 171.771469,105.801918 171.019272,104.450279 
	C170.984055,102.006149 170.976471,99.991936 171.114731,97.644257 
	C171.438492,96.577141 171.616425,95.843498 171.794342,95.109848 
	C167.132111,99.343674 162.107422,100.049904 156.717056,98.115555 
	C155.611679,97.718887 154.896866,95.968239 154.214890,94.724937 
	C153.375885,93.195343 152.760025,91.543365 152.047699,89.944290 
	C151.102386,91.493790 150.105255,93.015251 149.242706,94.609535 
	C148.976685,95.101242 149.077667,95.791534 148.931549,97.097801 
	C145.773102,96.727623 142.879303,96.388458 139.596649,95.747948 
	C138.459625,95.657333 137.711472,95.868065 136.967712,96.055565 
	C136.972122,96.032333 136.927963,96.049240 137.304291,95.853165 
	C138.108963,94.673531 138.873276,93.695847 138.890594,92.705101 
	C138.920044,91.019981 138.656326,89.267540 138.124100,87.674225 
	C137.972473,87.220276 135.857346,86.816872 135.685318,87.077782 
	C134.854309,88.338142 134.308456,89.808624 133.807755,91.255219 
	C133.562698,91.963203 133.636108,92.781425 133.522842,94.011574 
	C130.152176,94.011574 127.068382,94.011574 123.765884,93.953979 
	C123.248566,93.759262 123.069061,93.529198 123.077515,92.827652 
	C116.914612,83.885834 116.733475,79.311699 122.683487,72.058853 
	C129.819824,69.135414 131.092209,69.444962 135.322845,74.939888 
	C137.098541,77.246208 139.539001,76.684196 140.928192,73.708313 
	C141.890259,71.647415 143.206757,69.712364 143.866760,67.567787 
	C144.169403,66.584427 143.274582,65.232536 143.105774,63.753822 
	C144.533829,62.024139 145.778931,60.588409 147.024033,59.152683 
	C149.589722,55.141960 153.576431,55.780605 157.889343,56.397720 
	C162.358932,58.755543 165.294312,63.629799 171.058136,60.830032 
	C172.310181,60.221863 174.956970,61.488480 176.453705,62.584728 
	C179.734512,64.987686 182.690170,67.834618 185.808044,70.868484 
	C186.189896,72.317680 186.885254,73.413612 186.838837,74.477173 
	C186.544312,81.225250 187.552994,87.660728 190.839279,93.648445 
	C191.379913,94.633514 191.571854,96.301361 192.332397,96.593719 
	C196.901474,98.350121 197.558151,102.639847 199.053925,106.735046 
	C199.527298,113.765053 198.633041,119.916763 193.189621,124.663460 
	C192.673233,125.113770 192.662857,127.129501 193.170319,127.591316 
	C194.974533,129.233276 197.104568,130.517227 199.111221,131.936752 
	C199.111221,131.936752 199.035660,132.012650 198.875244,132.362167 
	C199.168961,132.779694 199.623093,132.847702 200.077225,132.915710 
	C200.077225,132.915710 200.042328,132.980957 199.628174,133.154022 
	C199.497421,134.218719 199.780838,135.110336 200.063187,136.467072 
	C200.006332,139.028244 199.880981,141.125351 199.912582,143.220093 
	C199.951111,145.774872 201.417023,146.366699 204.062317,144.973572 
	C204.062317,144.973572 204.014313,145.005127 204.024811,144.982056 
	C203.770706,146.575363 203.506119,148.191727 203.065109,150.885864 
	C196.151993,151.566910 188.332275,152.337265 179.981049,152.803329 
	C179.361160,152.143005 179.272781,151.786972 179.184418,151.430939 
M166.363800,80.952103 
	C167.106186,78.646400 168.361511,76.350487 168.405807,74.031448 
	C168.434067,72.550735 166.670410,71.035805 165.710129,69.536224 
	C164.692307,70.819565 163.674469,72.102913 162.656647,73.386261 
	C162.951508,73.687225 163.246384,73.988190 163.541245,74.289154 
	C162.192139,74.208153 160.843018,74.127144 160.120514,74.083763 
	C159.713379,77.120781 159.365799,79.713577 158.861725,83.473640 
	C161.458984,82.739647 163.629272,82.126312 166.363800,80.952103 
z"/>
<path fill="#F8F4DE" opacity="1.000000" stroke="none" 
	d="
M170.968903,97.977722 
	C170.976471,99.991936 170.984055,102.006149 170.964996,104.900780 
	C170.078018,112.743286 172.586426,117.898087 179.062454,120.924294 
	C179.457733,122.529312 179.853027,124.134331 180.451645,126.291664 
	C182.484268,128.289352 184.360550,129.679794 186.130692,131.194290 
	C188.240204,132.999146 191.262482,134.787186 189.363876,138.081711 
	C187.536209,141.253128 184.295609,142.406891 180.744431,140.915710 
	C178.947693,140.161255 177.430267,138.750717 175.765549,137.669128 
	C174.914978,137.116516 174.018082,136.635162 173.142120,136.121613 
	C172.808685,136.447693 172.475250,136.773788 172.141815,137.099869 
	C173.090347,138.369019 174.038879,139.638153 175.080658,141.176666 
	C175.483917,141.616440 175.793930,141.786880 176.075409,141.929138 
	C176.046890,141.900970 176.093475,141.835739 176.093475,141.835739 
	C176.093475,141.835739 175.832291,142.224426 175.525146,142.513062 
	C174.982910,143.241196 174.443542,143.882126 174.574173,144.079453 
	C174.873169,144.531052 175.499542,144.765884 175.992966,145.088745 
	C175.992966,145.088745 175.996124,144.999512 175.951965,144.994385 
	C176.209320,147.065109 176.510818,149.140991 176.605560,151.752747 
	C176.174606,152.524002 176.042358,152.802933 176.002045,153.125458 
	C159.288895,153.126633 142.575745,153.127808 125.431618,153.029663 
	C125.000648,152.930328 124.999146,152.498688 125.015976,151.830185 
	C125.003899,149.029327 125.194450,146.864853 124.888214,144.773102 
	C124.538239,142.382584 123.295540,141.117813 120.880142,143.037231 
	C119.830383,143.017365 118.780624,142.997513 117.453705,142.587921 
	C116.632401,141.536636 116.213249,140.670059 115.522522,140.248901 
	C112.488602,138.399048 109.376183,136.677963 106.187271,134.587097 
	C105.591431,133.300034 105.100548,132.336044 104.824989,131.794907 
	C115.089554,128.429321 124.806129,129.632446 134.128189,134.481049 
	C134.629669,145.342834 137.212204,149.381622 143.828995,149.606232 
	C152.478271,149.899826 154.759628,147.180725 156.214905,134.765579 
	C159.454010,133.850845 162.728836,132.926025 166.197083,131.946136 
	C166.643509,131.776215 166.839722,131.598633 167.278763,131.321930 
	C167.761490,131.202194 167.944595,131.118820 168.302979,130.987000 
	C168.716049,130.838409 168.879730,130.667358 169.302109,130.343048 
	C170.139603,129.856918 170.644257,129.453171 171.435852,129.001724 
	C171.487732,128.300690 171.252670,127.647324 170.647064,126.944344 
	C155.565201,135.225281 140.510681,133.406769 124.777672,128.912094 
	C130.229370,124.157745 131.792664,117.010895 129.120636,110.576691 
	C128.790665,109.103241 128.510117,107.997597 128.187454,106.571228 
	C128.065765,105.827469 127.986183,105.404419 127.946854,104.702515 
	C127.688728,104.210144 127.390358,103.996635 127.079117,103.821022 
	C127.066246,103.858910 127.134689,103.817299 127.116501,103.451729 
	C125.478844,98.513908 122.065269,96.934784 117.433945,96.893883 
	C116.088280,96.881996 114.752647,95.732857 113.744202,95.004707 
	C116.508507,91.471375 119.597031,91.488976 123.008667,93.206200 
	C123.069061,93.529198 123.248566,93.759262 123.899323,94.332947 
	C128.476959,95.196083 132.702469,95.622658 136.927963,96.049240 
	C136.927963,96.049240 136.972122,96.032333 136.941772,96.333954 
	C137.242004,96.770317 137.572571,96.905075 138.184189,97.309677 
	C142.143356,98.007759 145.821442,98.436440 149.499649,98.863976 
	C150.733566,99.007401 152.150131,98.804115 153.172073,99.346039 
	C159.440002,102.669731 165.299713,101.843147 170.968903,97.977722 
M144.283890,123.817711 
	C144.481354,122.743866 144.678818,121.670029 144.917709,120.370850 
	C142.438522,120.220291 140.254807,120.087677 138.011200,119.951424 
	C139.219299,127.093399 139.927856,127.610634 144.283890,123.817711 
M139.117874,115.220840 
	C140.904022,115.510315 142.690155,115.799797 144.476303,116.089264 
	C144.236420,114.914696 144.397797,113.195625 143.681396,112.667656 
	C141.531891,111.083557 139.637238,111.512230 139.117874,115.220840 
z"/>
<path fill="#F0F1F0" opacity="1.000000" stroke="none" 
	d="
M93.004890,100.522598 
	C94.785919,99.680740 96.566940,98.838882 98.671265,98.400772 
	C100.463005,99.020210 101.929558,99.406418 103.400223,99.422791 
	C110.721771,99.504341 118.559685,96.367447 124.719437,103.369232 
	C124.108566,104.166389 123.571014,104.577705 122.978386,105.339958 
	C123.626305,106.102394 124.329300,106.513885 125.269760,106.966476 
	C125.507217,107.007576 125.977348,106.901375 126.171463,106.983482 
	C126.365585,107.065590 126.787102,107.069412 126.867111,107.456238 
	C127.015732,108.891754 127.084328,109.940445 127.057449,111.250305 
	C126.651535,111.664948 126.341103,111.818436 125.891129,111.616333 
	C125.307449,111.419350 124.863312,111.577950 124.419174,111.736542 
	C124.750748,111.955009 125.082329,112.173485 125.257240,112.623520 
	C125.053978,113.599121 125.007393,114.343155 124.929306,115.431503 
	C124.797089,116.456894 124.696381,117.137970 124.299835,117.901016 
	C122.603447,118.084465 121.202896,118.185951 119.685448,118.295906 
	C120.444977,119.285156 121.161537,120.218437 122.077629,121.411598 
	C119.888184,122.446106 118.062805,123.308578 116.237427,124.171059 
	C118.414299,124.862770 120.445709,124.627304 122.482681,124.559967 
	C123.321716,124.532234 124.172699,124.866081 124.743210,125.301102 
	C115.983528,126.331001 107.498886,127.095276 99.003708,127.499779 
	C98.742233,126.200279 98.491302,125.260544 98.240372,124.320808 
	C97.951553,124.358528 97.662727,124.396248 97.373909,124.433968 
	C97.241409,125.539124 97.108902,126.644279 96.585464,127.776611 
	C95.564125,127.741516 94.927109,127.717781 94.304375,127.610817 
	C89.803627,126.837761 92.376724,121.932068 89.929420,119.530533 
	C90.728134,113.028557 87.344131,105.867973 94.732986,101.635452 
	C94.156952,101.264503 93.580925,100.893547 93.004890,100.522598 
M92.971672,112.456215 
	C93.389656,116.022461 93.807632,119.588715 94.350464,124.220222 
	C97.661339,122.662163 100.450539,121.349594 103.239738,120.037033 
	C103.087234,119.570038 102.934723,119.103043 102.782219,118.636047 
	C102.078560,118.556854 101.134071,118.143433 100.708466,118.450119 
	C96.416031,121.543175 95.987137,119.438698 95.852325,115.408333 
	C95.761086,112.680618 94.387329,109.995796 93.587196,107.291794 
	C93.143013,107.415329 92.698822,107.538872 92.254639,107.662407 
	C92.480240,109.010330 92.705841,110.358261 92.971672,112.456215 
M117.839340,117.061913 
	C116.504799,116.147987 115.170265,115.234055 113.835724,114.320129 
	C113.607315,114.858551 113.378906,115.396973 113.150497,115.935387 
	C114.565300,116.489670 115.980110,117.043945 117.839340,117.061913 
M95.105896,106.520103 
	C95.242668,106.753189 95.379440,106.986282 95.516220,107.219376 
	C95.641701,106.979210 95.915016,106.686691 95.853424,106.512764 
	C95.784035,106.316818 95.412971,106.227699 95.105896,106.520103 
z"/>
<path fill="#1D1917" opacity="1.000000" stroke="none" 
	d="
M89.864555,119.991158 
	C92.376724,121.932068 89.803627,126.837761 94.304375,127.610817 
	C94.927109,127.717781 95.564125,127.741516 96.912460,127.899963 
	C98.091667,127.950607 98.552948,127.905083 99.014236,127.859550 
	C107.498886,127.095276 115.983528,126.331001 125.086815,125.229767 
	C126.464897,123.260605 127.224335,121.628403 128.268188,119.806053 
	C128.281509,117.806152 128.010437,115.996399 127.735748,114.162590 
	C126.704285,114.506271 125.832542,114.796722 124.960800,115.087189 
	C125.007393,114.343155 125.053978,113.599121 125.395340,112.646957 
	C125.903259,112.356499 126.016785,112.200867 126.030663,111.971916 
	C126.341103,111.818436 126.651535,111.664948 127.393860,111.255554 
	C128.273849,110.981262 128.721954,110.962875 129.170074,110.944489 
	C131.792664,117.010895 130.229370,124.157745 124.777672,128.912094 
	C140.510681,133.406769 155.565201,135.225281 170.670563,127.287132 
	C171.092728,128.136169 171.120834,128.592789 171.148926,129.049408 
	C170.644257,129.453171 170.139603,129.856918 169.076950,130.217926 
	C168.388550,130.461929 168.258133,130.748688 168.127716,131.035461 
	C167.944595,131.118820 167.761490,131.202194 167.038635,131.206909 
	C166.333832,131.419235 166.168747,131.710220 166.003662,132.001205 
	C162.728836,132.926025 159.454010,133.850845 156.214905,134.765579 
	C154.759628,147.180725 152.478271,149.899826 143.828995,149.606232 
	C137.212204,149.381622 134.629669,145.342834 134.128189,134.481049 
	C124.806129,129.632446 115.089554,128.429321 104.824989,131.794907 
	C105.100548,132.336044 105.591431,133.300034 105.796013,134.620483 
	C104.986374,134.992416 104.463036,135.007858 103.939697,135.023300 
	C102.317101,132.524963 100.448555,131.103073 97.095566,130.579666 
	C89.791443,129.439545 89.240791,128.281891 89.114647,120.412003 
	C89.418304,119.988983 89.864555,119.991158 89.864555,119.991158 
M147.440201,134.944321 
	C144.030792,134.944321 140.621368,134.944321 136.536392,134.944321 
	C137.008347,137.579422 136.936493,140.375854 138.070007,142.541321 
	C139.057770,144.428329 141.389923,146.803314 143.155655,146.826157 
	C146.186951,146.865341 149.973206,146.011200 152.034760,144.051300 
	C153.494904,142.663147 152.873001,138.811234 152.605911,136.116043 
	C152.553879,135.590927 149.855515,135.328049 147.440201,134.944321 
z"/>
<path fill="#22221F" opacity="1.000000" stroke="none" 
	d="
M199.115204,106.370216 
	C197.558151,102.639847 196.901474,98.350121 192.332397,96.593719 
	C191.571854,96.301361 191.379913,94.633514 190.839279,93.648445 
	C187.552994,87.660728 186.544312,81.225250 186.838837,74.477173 
	C186.885254,73.413612 186.189896,72.317680 185.936920,70.570480 
	C186.339905,69.604919 186.643478,69.305595 186.947052,69.006271 
	C187.697678,72.350830 188.770340,75.661064 189.131332,79.047165 
	C189.862427,85.904549 192.612839,91.650688 197.008224,96.926460 
	C198.927505,99.230186 199.758224,102.440804 200.559341,105.694641 
	C199.728668,106.223213 199.421936,106.296715 199.115204,106.370216 
z"/>
<path fill="#20201D" opacity="1.000000" stroke="none" 
	d="
M142.922821,64.047783 
	C143.274582,65.232536 144.169403,66.584427 143.866760,67.567787 
	C143.206757,69.712364 141.890259,71.647415 140.928192,73.708313 
	C139.539001,76.684196 137.098541,77.246208 135.322845,74.939888 
	C131.092209,69.444962 129.819824,69.135414 122.385056,71.902679 
	C121.469620,71.510635 121.192780,71.163696 120.915932,70.816757 
	C123.774353,69.832619 126.676048,67.970802 129.479126,68.109001 
	C132.332626,68.249687 134.179855,67.433800 136.459412,66.140976 
	C137.000549,68.802689 137.170090,71.137726 137.351196,73.632309 
	C139.443420,70.033173 141.183105,67.040474 142.922821,64.047783 
z"/>
<path fill="#2A2923" opacity="1.000000" stroke="none" 
	d="
M186.938171,68.665550 
	C186.643478,69.305595 186.339905,69.604919 185.907471,70.202240 
	C182.690170,67.834618 179.734512,64.987686 176.453705,62.584728 
	C174.956970,61.488480 172.310181,60.221863 171.058136,60.830032 
	C165.294312,63.629799 162.358932,58.755543 158.296494,56.500099 
	C158.405151,56.152420 158.584290,56.070293 158.731079,56.109432 
	C168.737961,58.777550 180.332474,57.787212 186.938171,68.665550 
z"/>
<path fill="#292823" opacity="1.000000" stroke="none" 
	d="
M120.584976,70.940170 
	C121.192780,71.163696 121.469620,71.510635 122.044884,72.013756 
	C116.733475,79.311699 116.914612,83.885834 123.077515,92.827652 
	C119.597031,91.488976 116.508507,91.471375 113.339890,94.964203 
	C112.336006,94.983223 112.068214,94.942406 111.800423,94.901581 
	C113.505997,92.915054 115.211578,90.928528 117.079239,88.753227 
	C115.145996,82.525497 114.967712,76.307869 120.584976,70.940170 
z"/>
<path fill="#A07D3F" opacity="1.000000" stroke="none" 
	d="
M143.105774,63.753822 
	C141.183105,67.040474 139.443420,70.033173 137.351196,73.632309 
	C137.170090,71.137726 137.000549,68.802689 136.880646,66.116074 
	C137.418381,62.407501 137.906494,59.050518 138.394608,55.693531 
	C139.655045,56.089878 141.089325,56.238914 142.119354,56.963009 
	C142.904114,57.514679 143.175934,58.796001 144.014008,59.831650 
	C144.713043,59.701286 145.074036,59.491989 145.435013,59.282692 
	C145.697708,59.239197 145.960419,59.195698 146.623596,59.152435 
	C145.778931,60.588409 144.533829,62.024139 143.105774,63.753822 
z"/>
<path fill="#0B0C0B" opacity="1.000000" stroke="none" 
	d="
M111.458336,95.116074 
	C112.068214,94.942406 112.336006,94.983223 113.008110,95.064545 
	C114.752647,95.732857 116.088280,96.881996 117.433945,96.893883 
	C122.065269,96.934784 125.478844,98.513908 126.853592,103.487228 
	C126.003502,103.586662 125.398125,103.285019 124.792755,102.983376 
	C118.559685,96.367447 110.721771,99.504341 103.400223,99.422791 
	C101.929558,99.406418 100.463005,99.020210 98.996780,98.406418 
	C102.576927,97.659576 106.162857,97.370926 109.723991,96.896263 
	C110.248322,96.826378 110.655090,95.874405 111.458336,95.116074 
z"/>
<path fill="#1F201F" opacity="1.000000" stroke="none" 
	d="
M89.151703,69.956413 
	C91.459106,71.457352 93.525742,72.700523 95.518784,73.899422 
	C94.015991,76.425697 92.647881,78.725578 91.200989,81.157890 
	C86.537766,78.938599 86.444603,74.654778 86.513779,70.386597 
	C86.517708,70.144394 88.076042,69.927383 89.151703,69.956413 
z"/>
<path fill="#1B1A15" opacity="1.000000" stroke="none" 
	d="
M199.053925,106.735046 
	C199.421936,106.296715 199.728668,106.223213 200.502777,106.076447 
	C201.639542,112.403915 201.144043,118.497780 197.040527,123.916222 
	C196.454407,124.690140 196.824921,126.540375 197.291473,127.669945 
	C197.865387,129.059509 199.004730,130.215546 199.505447,131.704636 
	C197.104568,130.517227 194.974533,129.233276 193.170319,127.591316 
	C192.662857,127.129501 192.673233,125.113770 193.189621,124.663460 
	C198.633041,119.916763 199.527298,113.765053 199.053925,106.735046 
z"/>
<path fill="#242421" opacity="1.000000" stroke="none" 
	d="
M203.028748,79.552780 
	C205.699890,80.075150 208.268555,80.964066 211.504562,82.083916 
	C208.962296,84.900581 207.251465,86.796051 205.420273,88.824890 
	C201.782944,86.692688 202.110229,83.380035 203.028748,79.552780 
z"/>
<path fill="#0B0B0B" opacity="1.000000" stroke="none" 
	d="
M89.929420,119.530533 
	C89.864555,119.991158 89.418304,119.988983 89.195312,119.996895 
	C86.236221,112.709549 87.629120,104.666527 92.649818,100.671371 
	C93.580925,100.893547 94.156952,101.264503 94.732986,101.635452 
	C87.344131,105.867973 90.728134,113.028557 89.929420,119.530533 
z"/>
<path fill="#272826" opacity="1.000000" stroke="none" 
	d="
M104.011032,135.356781 
	C104.463036,135.007858 104.986374,134.992416 105.900970,134.943573 
	C109.376183,136.677963 112.488602,138.399048 115.522522,140.248901 
	C116.213249,140.670059 116.632401,141.536636 117.060318,142.571579 
	C111.387634,142.776886 107.426300,139.780853 104.011032,135.356781 
z"/>
<path fill="#EDE8D5" opacity="1.000000" stroke="none" 
	d="
M120.936859,143.404373 
	C123.295540,141.117813 124.538239,142.382584 124.888214,144.773102 
	C125.194450,146.864853 125.003899,149.029327 125.011703,151.614410 
	C123.889832,150.883286 122.455643,149.860748 121.782684,148.469894 
	C121.118759,147.097733 121.225143,145.352875 120.936859,143.404373 
z"/>
<path fill="#151411" opacity="1.000000" stroke="none" 
	d="
M203.819778,144.654449 
	C201.417023,146.366699 199.951111,145.774872 199.912582,143.220093 
	C199.880981,141.125351 200.006332,139.028244 200.391266,136.466736 
	C201.157883,136.000107 201.595337,135.998917 202.032791,135.997711 
	C202.547607,138.776917 203.062424,141.556107 203.819778,144.654449 
z"/>
<path fill="#1B1A15" opacity="1.000000" stroke="none" 
	d="
M202.062088,135.621033 
	C201.595337,135.998917 201.157883,136.000107 200.392334,136.001633 
	C199.780838,135.110336 199.497421,134.218719 199.660339,133.135742 
	C200.768234,133.711060 201.429810,134.477722 202.062088,135.621033 
z"/>
<path fill="#4B5050" opacity="1.000000" stroke="none" 
	d="
M76.196686,97.833603 
	C75.908394,97.444786 75.752197,96.878952 75.795273,96.157097 
	C76.105965,96.552910 76.217377,97.104744 76.196686,97.833603 
z"/>
<path fill="#F7E17F" opacity="1.000000" stroke="none" 
	d="
M145.306915,59.198608 
	C145.074036,59.491989 144.713043,59.701286 144.399277,59.691032 
	C144.598206,59.197899 144.842316,59.078915 145.306915,59.198608 
z"/>
<path fill="#1B1A15" opacity="1.000000" stroke="none" 
	d="
M200.238037,132.546387 
	C199.623093,132.847702 199.168961,132.779694 198.900391,132.314987 
	C199.523575,132.004532 199.961212,132.090790 200.238037,132.546387 
z"/>
<path fill="#342E23" opacity="1.000000" stroke="none" 
	d="
M143.251556,22.024706 
	C143.269882,21.836349 143.540390,21.733976 143.905609,21.774494 
	C143.834793,21.981819 143.669266,22.046253 143.251556,22.024706 
z"/>
<path fill="#EDE8D5" opacity="1.000000" stroke="none" 
	d="
M176.319138,153.123383 
	C176.042358,152.802933 176.174606,152.524002 176.589859,152.152466 
	C176.732697,152.384628 176.684464,152.752975 176.319138,153.123383 
z"/>
<path fill="#282721" opacity="1.000000" stroke="none" 
	d="
M179.141785,151.723175 
	C179.272781,151.786972 179.361160,152.143005 179.519775,152.770538 
	C179.426392,152.699829 179.262756,152.357635 179.141785,151.723175 
z"/>
<path fill="#181713" opacity="1.000000" stroke="none" 
	d="
M171.114716,97.644257 
	C165.299713,101.843147 159.440002,102.669731 153.172073,99.346039 
	C152.150131,98.804115 150.733566,99.007401 149.499649,98.863976 
	C145.821442,98.436440 142.143356,98.007759 138.481934,97.256111 
	C138.994278,96.638237 139.489883,96.343773 139.985504,96.049301 
	C142.879303,96.388458 145.773102,96.727623 148.931549,97.097801 
	C149.077667,95.791534 148.976685,95.101242 149.242706,94.609535 
	C150.105255,93.015251 151.102386,91.493790 152.047699,89.944290 
	C152.760025,91.543365 153.375885,93.195343 154.214890,94.724937 
	C154.896866,95.968239 155.611679,97.718887 156.717056,98.115555 
	C162.107422,100.049904 167.132111,99.343674 171.794342,95.109848 
	C171.616425,95.843498 171.438492,96.577141 171.114716,97.644257 
z"/>
<path fill="#2F2D25" opacity="1.000000" stroke="none" 
	d="
M174.987411,140.907303 
	C174.038879,139.638153 173.090347,138.369019 172.141815,137.099869 
	C172.475250,136.773788 172.808685,136.447693 173.142120,136.121613 
	C174.018082,136.635162 174.914978,137.116516 175.765549,137.669128 
	C177.430267,138.750717 178.947693,140.161255 180.744431,140.915710 
	C184.295609,142.406891 187.536209,141.253128 189.363876,138.081711 
	C191.262482,134.787186 188.240204,132.999146 186.130692,131.194290 
	C184.360550,129.679794 182.484268,128.289352 180.762924,126.479843 
	C183.388275,127.307205 186.145676,128.166779 188.364594,129.771103 
	C191.387772,131.956940 193.950958,134.766617 191.952515,139.041031 
	C190.255966,142.669693 184.915466,144.990616 180.892776,143.800812 
	C179.484207,143.384186 178.201340,142.542587 176.477264,141.865387 
	C176.093475,141.835739 176.046890,141.900970 176.061691,141.629181 
	C175.713470,141.207352 175.350433,141.057327 174.987411,140.907303 
z"/>
<path fill="#2A251C" opacity="1.000000" stroke="none" 
	d="
M166.081696,81.232544 
	C163.629272,82.126312 161.458984,82.739647 158.861725,83.473640 
	C159.365799,79.713577 159.713379,77.120781 160.120514,74.083763 
	C160.843018,74.127144 162.192139,74.208153 163.541245,74.289154 
	C163.246384,73.988190 162.951508,73.687225 162.656647,73.386261 
	C163.674469,72.102913 164.692307,70.819565 165.710129,69.536224 
	C166.670410,71.035805 168.434067,72.550735 168.405807,74.031448 
	C168.361511,76.350487 167.106186,78.646400 166.081696,81.232544 
z"/>
<path fill="#070707" opacity="1.000000" stroke="none" 
	d="
M137.304291,95.853165 
	C132.702469,95.622658 128.476959,95.196083 124.118027,94.390533 
	C127.068382,94.011574 130.152176,94.011574 133.522842,94.011574 
	C133.636108,92.781425 133.562698,91.963203 133.807755,91.255219 
	C134.308456,89.808624 134.854309,88.338142 135.685318,87.077782 
	C135.857346,86.816872 137.972473,87.220276 138.124100,87.674225 
	C138.656326,89.267540 138.920044,91.019981 138.890594,92.705101 
	C138.873276,93.695847 138.108963,94.673531 137.304291,95.853165 
z"/>
<path fill="#27251D" opacity="1.000000" stroke="none" 
	d="
M179.352356,120.790199 
	C172.586426,117.898087 170.078018,112.743286 170.992645,105.330696 
	C171.771469,105.801918 173.076508,106.695946 173.122025,107.650055 
	C173.341797,112.257034 174.639557,115.992760 179.265564,117.976868 
	C179.695145,118.161125 179.530823,119.730087 179.352356,120.790199 
z"/>
<path fill="#070707" opacity="1.000000" stroke="none" 
	d="
M139.596649,95.747948 
	C139.489883,96.343773 138.994278,96.638237 138.200897,96.986267 
	C137.572571,96.905075 137.242004,96.770317 136.937378,96.357178 
	C137.711472,95.868065 138.459625,95.657333 139.596649,95.747948 
z"/>
<path fill="#151411" opacity="1.000000" stroke="none" 
	d="
M176.060303,144.689850 
	C175.499542,144.765884 174.873169,144.531052 174.574173,144.079453 
	C174.443542,143.882126 174.982910,143.241196 175.537216,142.746918 
	C175.946838,143.225052 176.037247,143.758011 176.060303,144.689850 
z"/>
<path fill="#302925" opacity="1.000000" stroke="none" 
	d="
M144.183517,124.223160 
	C139.927856,127.610634 139.219299,127.093399 138.011200,119.951424 
	C140.254807,120.087677 142.438522,120.220291 144.917709,120.370850 
	C144.678818,121.670029 144.481354,122.743866 144.183517,124.223160 
z"/>
<path fill="#503A32" opacity="1.000000" stroke="none" 
	d="
M139.013947,114.828812 
	C139.637238,111.512230 141.531891,111.083557 143.681396,112.667656 
	C144.397797,113.195625 144.236420,114.914696 144.476303,116.089264 
	C142.690155,115.799797 140.904022,115.510315 139.013947,114.828812 
z"/>
<path fill="#222222" opacity="1.000000" stroke="none" 
	d="
M124.719437,103.369232 
	C125.398125,103.285019 126.003502,103.586662 126.871780,103.852798 
	C127.134689,103.817299 127.066246,103.858910 127.152069,104.063248 
	C127.460800,104.505524 127.683701,104.743446 127.906609,104.981377 
	C127.986183,105.404419 128.065765,105.827469 127.825333,106.603287 
	C127.265915,106.993851 127.026505,107.031631 126.787102,107.069412 
	C126.787102,107.069412 126.365585,107.065590 126.078606,106.774200 
	C125.587654,106.239059 125.330421,106.083237 124.867409,105.759247 
	C124.154419,105.331787 123.593948,105.160400 123.033478,104.989014 
	C123.571014,104.577705 124.108566,104.166389 124.719437,103.369232 
z"/>
<path fill="#0B0C0B" opacity="1.000000" stroke="none" 
	d="
M126.867111,107.456238 
	C127.026505,107.031631 127.265915,106.993851 127.867447,106.924004 
	C128.510117,107.997597 128.790665,109.103241 129.120636,110.576691 
	C128.721954,110.962875 128.273849,110.981262 127.489334,110.994400 
	C127.084328,109.940445 127.015732,108.891754 126.867111,107.456238 
z"/>
<path fill="#EDE8D5" opacity="1.000000" stroke="none" 
	d="
M171.435867,129.001724 
	C171.120834,128.592789 171.092728,128.136169 171.041122,127.336754 
	C171.252670,127.647324 171.487732,128.300690 171.435867,129.001724 
z"/>
<path fill="#0B0C0B" opacity="1.000000" stroke="none" 
	d="
M127.946854,104.702515 
	C127.683701,104.743446 127.460800,104.505524 127.164948,104.025360 
	C127.390358,103.996635 127.688728,104.210144 127.946854,104.702515 
z"/>
<path fill="#EDE8D5" opacity="1.000000" stroke="none" 
	d="
M166.197083,131.946136 
	C166.168747,131.710220 166.333832,131.419235 166.739044,131.243286 
	C166.839722,131.598633 166.643509,131.776215 166.197083,131.946136 
z"/>
<path fill="#F7E17F" opacity="1.000000" stroke="none" 
	d="
M175.080658,141.176666 
	C175.350433,141.057327 175.713470,141.207352 176.090210,141.657349 
	C175.793930,141.786880 175.483917,141.616440 175.080658,141.176666 
z"/>
<path fill="#EDE8D5" opacity="1.000000" stroke="none" 
	d="
M168.302979,130.987000 
	C168.258133,130.748688 168.388550,130.461929 168.744125,130.300293 
	C168.879730,130.667358 168.716049,130.838409 168.302979,130.987000 
z"/>
<path fill="#DFDFDF" opacity="1.000000" stroke="none" 
	d="
M92.951561,112.081200 
	C92.705841,110.358261 92.480240,109.010330 92.254639,107.662407 
	C92.698822,107.538872 93.143013,107.415329 93.587196,107.291794 
	C94.387329,109.995796 95.761086,112.680618 95.852325,115.408333 
	C95.987137,119.438698 96.416031,121.543175 100.708466,118.450119 
	C101.134071,118.143433 102.078560,118.556854 102.782219,118.636047 
	C102.934723,119.103043 103.087234,119.570038 103.239738,120.037033 
	C100.450539,121.349594 97.661339,122.662163 94.350464,124.220222 
	C93.807632,119.588715 93.389656,116.022461 92.951561,112.081200 
z"/>
<path fill="#D6D6D6" opacity="1.000000" stroke="none" 
	d="
M127.983780,119.996201 
	C127.224335,121.628403 126.464897,123.260605 125.361847,124.964134 
	C124.172699,124.866081 123.321716,124.532234 122.482681,124.559967 
	C120.445709,124.627304 118.414299,124.862770 116.237427,124.171059 
	C118.062805,123.308578 119.888184,122.446106 122.077629,121.411598 
	C121.161537,120.218437 120.444977,119.285156 119.685448,118.295906 
	C121.202896,118.185951 122.603447,118.084465 124.454453,118.255814 
	C125.931190,119.017838 126.957481,119.507011 127.983780,119.996201 
z"/>
<path fill="#CCCCCB" opacity="1.000000" stroke="none" 
	d="
M128.268188,119.806046 
	C126.957481,119.507011 125.931190,119.017838 124.750290,118.173851 
	C124.696381,117.137970 124.797089,116.456894 124.929298,115.431503 
	C125.832542,114.796722 126.704285,114.506271 127.735748,114.162590 
	C128.010437,115.996399 128.281509,117.806152 128.268188,119.806046 
z"/>
<path fill="#D6D6D6" opacity="1.000000" stroke="none" 
	d="
M117.617126,117.330070 
	C115.980110,117.043945 114.565300,116.489670 113.150497,115.935387 
	C113.378906,115.396973 113.607315,114.858551 113.835724,114.320129 
	C115.170265,115.234055 116.504799,116.147987 117.617126,117.330070 
z"/>
<path fill="#DFDFDF" opacity="1.000000" stroke="none" 
	d="
M99.003708,127.499786 
	C98.552948,127.905083 98.091667,127.950607 97.303391,127.872787 
	C97.108902,126.644279 97.241409,125.539124 97.373909,124.433968 
	C97.662727,124.396248 97.951553,124.358528 98.240372,124.320808 
	C98.491302,125.260544 98.742233,126.200279 99.003708,127.499786 
z"/>
<path fill="#4F4F4E" opacity="1.000000" stroke="none" 
	d="
M122.978394,105.339966 
	C123.593948,105.160400 124.154419,105.331787 124.832947,105.987228 
	C124.951012,106.471283 125.032295,106.925377 125.032295,106.925377 
	C124.329300,106.513885 123.626305,106.102394 122.978394,105.339966 
z"/>
<path fill="#DFDFDF" opacity="1.000000" stroke="none" 
	d="
M95.139511,106.306107 
	C95.412971,106.227699 95.784035,106.316818 95.853424,106.512764 
	C95.915016,106.686691 95.641701,106.979210 95.516220,107.219376 
	C95.379440,106.986282 95.242668,106.753189 95.139511,106.306107 
z"/>
<path fill="#696966" opacity="1.000000" stroke="none" 
	d="
M125.891129,111.616333 
	C126.016785,112.200867 125.903259,112.356499 125.552002,112.415390 
	C125.082329,112.173485 124.750748,111.955009 124.419174,111.736542 
	C124.863312,111.577950 125.307449,111.419350 125.891129,111.616333 
z"/>
<path fill="#0B0C0B" opacity="1.000000" stroke="none" 
	d="
M125.269760,106.966476 
	C125.032295,106.925377 124.951012,106.471283 124.985474,106.243301 
	C125.330421,106.083237 125.587654,106.239059 125.884491,106.692093 
	C125.977348,106.901375 125.507217,107.007576 125.269760,106.966476 
z"/>
<path fill="#ED6039" opacity="1.000000" stroke="none" 
	d="
M147.908997,134.944260 
	C149.855515,135.328049 152.553879,135.590927 152.605911,136.116043 
	C152.873001,138.811234 153.494904,142.663147 152.034760,144.051300 
	C149.973206,146.011200 146.186951,146.865341 143.155655,146.826157 
	C141.389923,146.803314 139.057770,144.428329 138.070007,142.541321 
	C136.936493,140.375854 137.008347,137.579422 136.536392,134.944321 
	C140.621368,134.944321 144.030792,134.944321 147.908997,134.944260 
z"/>
</svg>